<svg id="SvgjsSvg1154" width="609.99997820173" height="283.3839416503906" xmlns="http://www.w3.org/2000/svg" version="1.1" xmlns:xlink="http://www.w3.org/1999/xlink" xmlns:svgjs="http://svgjs.com/svgjs"><defs id="SvgjsDefs1155"><marker id="SvgjsMarker1218" markerWidth="14" markerHeight="10" refX="10" refY="5" viewBox="0 0 14 10" orient="auto" markerUnits="userSpaceOnUse" stroke-dasharray="0,0"><path id="SvgjsPath1219" d="M0,0 L14,5 L0,10 L0,0" fill="#323232" stroke="#323232" stroke-width="1"></path></marker><marker id="SvgjsMarker1222" markerWidth="14" markerHeight="10" refX="10" refY="5" viewBox="0 0 14 10" orient="auto" markerUnits="userSpaceOnUse" stroke-dasharray="0,0"><path id="SvgjsPath1223" d="M0,0 L14,5 L0,10 L0,0" fill="#323232" stroke="#323232" stroke-width="1"></path></marker><marker id="SvgjsMarker1226" markerWidth="14" markerHeight="10" refX="10" refY="5" viewBox="0 0 14 10" orient="auto" markerUnits="userSpaceOnUse" stroke-dasharray="0,0"><path id="SvgjsPath1227" d="M0,0 L14,5 L0,10 L0,0" fill="#323232" stroke="#323232" stroke-width="1"></path></marker><marker id="SvgjsMarker1230" markerWidth="14" markerHeight="10" refX="10" refY="5" viewBox="0 0 14 10" orient="auto" markerUnits="userSpaceOnUse" stroke-dasharray="0,0"><path id="SvgjsPath1231" d="M0,0 L14,5 L0,10 L0,0" fill="#323232" stroke="#323232" stroke-width="1"></path></marker><marker id="SvgjsMarker1234" markerWidth="14" markerHeight="10" refX="10" refY="5" viewBox="0 0 14 10" orient="auto" markerUnits="userSpaceOnUse" stroke-dasharray="0,0"><path id="SvgjsPath1235" d="M0,0 L14,5 L0,10 L0,0" fill="#323232" stroke="#323232" stroke-width="1"></path></marker><marker id="SvgjsMarker1238" markerWidth="14" markerHeight="10" refX="10" refY="5" viewBox="0 0 14 10" orient="auto" markerUnits="userSpaceOnUse" stroke-dasharray="0,0"><path id="SvgjsPath1239" d="M0,0 L14,5 L0,10 L0,0" fill="#323232" stroke="#323232" stroke-width="1"></path></marker></defs><g id="SvgjsG1156" transform="translate(235.00297183082097,154.94027625189892)"><path id="SvgjsPath1157" d="M 0 4Q 0 0 4 0L 136 0Q 140 0 140 4L 140 66Q 140 70 136 70L 4 70Q 0 70 0 66Z" stroke="rgba(33,41,48,1)" stroke-width="2" fill-opacity="1" fill="#c8e6c9"></path><g id="SvgjsG1158"><text id="SvgjsText1159" font-family="微软雅黑" text-anchor="middle" font-size="20px" width="120px" fill="#323232" font-weight="400" align="middle" lineHeight="125%" anchor="middle" family="微软雅黑" size="20px" weight="400" font-style="" opacity="1" y="17" transform="rotate(0)"><tspan id="SvgjsTspan1160" dy="25" x="70"><tspan id="SvgjsTspan1161" style="text-decoration:;fill: rgb(50, 50, 50);">用户操作面板</tspan></tspan></text></g></g><g id="SvgjsG1162" transform="translate(25.002971830820684,154.94027625189892)"><path id="SvgjsPath1163" d="M 0 4Q 0 0 4 0L 136 0Q 140 0 140 4L 140 66Q 140 70 136 70L 4 70Q 0 70 0 66Z" stroke="rgba(33,41,48,1)" stroke-width="2" fill-opacity="1" fill="#ffcdd2"></path><g id="SvgjsG1164"><text id="SvgjsText1165" font-family="微软雅黑" text-anchor="middle" font-size="20px" width="120px" fill="#323232" font-weight="400" align="middle" lineHeight="125%" anchor="middle" family="微软雅黑" size="20px" weight="400" font-style="" opacity="1" y="17" transform="rotate(0)"><tspan id="SvgjsTspan1166" dy="25" x="70"><tspan id="SvgjsTspan1167" style="text-decoration:;fill: rgb(50, 50, 50);">后端算法</tspan></tspan></text></g></g><g id="SvgjsG1168" transform="translate(445.00297183082114,154.94027625189892)"><path id="SvgjsPath1169" d="M 0 4Q 0 0 4 0L 136 0Q 140 0 140 4L 140 66Q 140 70 136 70L 4 70Q 0 70 0 66Z" stroke="rgba(33,41,48,1)" stroke-width="2" fill-opacity="1" fill="#fff9c4"></path><g id="SvgjsG1170"><text id="SvgjsText1171" font-family="微软雅黑" text-anchor="middle" font-size="20px" width="120px" fill="#323232" font-weight="400" align="middle" lineHeight="125%" anchor="middle" family="微软雅黑" size="20px" weight="400" font-style="" opacity="1" y="17" transform="rotate(0)"><tspan id="SvgjsTspan1172" dy="25" x="70"><tspan id="SvgjsTspan1173" style="text-decoration:;fill: rgb(50, 50, 50);">绘图画板</tspan></tspan></text></g></g><g id="SvgjsG1174" transform="translate(375.002971830821,25.00679225982249)"><path id="SvgjsPath1175" d="M 0 35C 0 -11.666666666666666 70 -11.666666666666666 70 35C 70 81.66666666666667 0 81.66666666666667 0 35Z" stroke="rgba(33,41,48,1)" stroke-width="2" fill-opacity="1" fill="#b2ebf2"></path><g id="SvgjsG1176"><text id="SvgjsText1177" font-family="微软雅黑" text-anchor="middle" font-size="20px" width="50px" fill="#323232" font-weight="400" align="middle" lineHeight="125%" anchor="middle" family="微软雅黑" size="20px" weight="400" font-style="" opacity="1" y="17" transform="rotate(0)"><tspan id="SvgjsTspan1178" dy="25" x="35"><tspan id="SvgjsTspan1179" style="text-decoration:;">用户</tspan></tspan></text></g></g><g id="SvgjsG1180" transform="translate(150.93498937468104,143.2548125927512)"><path id="SvgjsPath1181" d="M 0 0L 100 0L 100 40L 0 40Z" stroke="none" fill="none"></path><g id="SvgjsG1182"><text id="SvgjsText1183" font-family="微软雅黑" text-anchor="middle" font-size="16px" width="100px" fill="#323232" font-weight="400" align="middle" lineHeight="125%" anchor="middle" family="微软雅黑" size="16px" weight="400" font-style="" opacity="1" y="6" transform="rotate(0)"><tspan id="SvgjsTspan1184" dy="20" x="50"><tspan id="SvgjsTspan1185" style="text-decoration:;">调用</tspan></tspan></text></g></g><g id="SvgjsG1186" transform="translate(485.00297183082114,81.40210568443216)"><path id="SvgjsPath1187" d="M 0 0L 100 0L 100 40L 0 40Z" stroke="none" fill="none"></path><g id="SvgjsG1188"><text id="SvgjsText1189" font-family="微软雅黑" text-anchor="middle" font-size="16px" width="100px" fill="#323232" font-weight="400" align="middle" lineHeight="125%" anchor="middle" family="微软雅黑" size="16px" weight="400" font-style="" opacity="1" y="6" transform="rotate(0)"><tspan id="SvgjsTspan1190" dy="20" x="50"><tspan id="SvgjsTspan1191" style="text-decoration:;">显示</tspan></tspan></text></g></g><g id="SvgjsG1192" transform="translate(151.99545303382934,172.84947410548494)"><path id="SvgjsPath1193" d="M 0 0L 100 0L 100 40L 0 40Z" stroke="none" fill="none"></path><g id="SvgjsG1194"><text id="SvgjsText1195" font-family="微软雅黑" text-anchor="middle" font-size="16px" width="100px" fill="#323232" font-weight="400" align="middle" lineHeight="125%" anchor="middle" family="微软雅黑" size="16px" weight="400" font-style="" opacity="1" y="6" transform="rotate(0)"><tspan id="SvgjsTspan1196" dy="20" x="50"><tspan id="SvgjsTspan1197" style="text-decoration:;">输出</tspan></tspan></text></g></g><g id="SvgjsG1198" transform="translate(364.2886861165356,218.38944493641952)"><path id="SvgjsPath1199" d="M 0 0L 100 0L 100 40L 0 40Z" stroke="none" fill="none"></path><g id="SvgjsG1200"><text id="SvgjsText1201" font-family="微软雅黑" text-anchor="middle" font-size="16px" width="100px" fill="#323232" font-weight="400" align="middle" lineHeight="125%" anchor="middle" family="微软雅黑" size="16px" weight="400" font-style="" opacity="1" y="6" transform="rotate(0)"><tspan id="SvgjsTspan1202" dy="20" x="50"><tspan id="SvgjsTspan1203" style="text-decoration:;">绘制</tspan></tspan></text></g></g><g id="SvgjsG1204" transform="translate(307.9368034847185,88.90210568443207)"><path id="SvgjsPath1205" d="M 0 0L 43.418050977919506 0L 43.418050977919506 25.00000000000017L 0 25.00000000000017Z" stroke="none" fill="none"></path><g id="SvgjsG1206"><text id="SvgjsText1207" font-family="微软雅黑" text-anchor="middle" font-size="16px" width="44px" fill="#323232" font-weight="400" align="middle" lineHeight="125%" anchor="middle" family="微软雅黑" size="16px" weight="400" font-style="" opacity="1" y="-1.4999999999999147" transform="rotate(0)"><tspan id="SvgjsTspan1208" dy="20" x="22"><tspan id="SvgjsTspan1209" style="text-decoration:;">操作</tspan></tspan></text></g></g><g id="SvgjsG1210" transform="translate(380.71725754510646,107.47353425586077)"><path id="SvgjsPath1211" d="M 0 0L 100 0L 100 40L 0 40Z" stroke="none" fill="none"></path><g id="SvgjsG1212"><text id="SvgjsText1213" font-family="微软雅黑" text-anchor="middle" font-size="16px" width="100px" fill="#323232" font-weight="400" align="middle" lineHeight="125%" anchor="middle" family="微软雅黑" size="16px" weight="400" font-style="" opacity="1" y="6" transform="rotate(0)"><tspan id="SvgjsTspan1214" dy="20" x="50"><tspan id="SvgjsTspan1215" style="text-decoration:;">反馈</tspan></tspan></text></g></g><g id="SvgjsG1216"><path id="SvgjsPath1217" d="M515.0029718308211 153.94027625189892L515.0029718308211 60.00679225982249L448.60297183082105 60.00679225982249" stroke="#323232" stroke-width="2" fill="none" marker-end="url(#SvgjsMarker1218)"></path></g><g id="SvgjsG1220"><path id="SvgjsPath1221" d="M305.00297183082097 225.94027625189892L305.00297183082097 254.94027625189892L515.0029718308211 254.94027625189892L515.0029718308211 228.54027625189894" stroke="#323232" stroke-width="2" fill="none" marker-end="url(#SvgjsMarker1222)"></path></g><g id="SvgjsG1224"><path id="SvgjsPath1225" d="M374.002971830821 60.00679225982249L305.00297183082097 60.00679225982249L305.00297183082097 151.3402762518989" stroke="#323232" stroke-width="2" fill="none" marker-end="url(#SvgjsMarker1226)"></path></g><g id="SvgjsG1228"><path id="SvgjsPath1229" d="M376.002971830821 189.94027625189892L410.002971830821 189.94027625189892L410.002971830821 98.60679225982248" stroke="#323232" stroke-width="2" fill="none" marker-end="url(#SvgjsMarker1230)"></path></g><g id="SvgjsG1232"><path id="SvgjsPath1233" d="M234.00140541478208 174.64520676691728L200.00140541478208 174.64520676691728L200.00140541478208 174.64520676691728L168.6014054147821 174.64520676691728" stroke="#323232" stroke-width="2" fill="none" marker-end="url(#SvgjsMarker1234)"></path></g><g id="SvgjsG1236"><path id="SvgjsPath1237" d="M166.00140541478208 204.64520676691734L200.00140541478208 204.64520676691734L200.00140541478208 204.64520676691734L231.40140541478206 204.64520676691734" stroke="#323232" stroke-width="2" fill="none" marker-end="url(#SvgjsMarker1238)"></path></g></svg>